/* XPM */
static char * gnu_in_net_xpm[] = {
"32 32 4 1",
" 	c None",
".	c #000000",
"+	c #000002",
"@	c #040404",
"                .               ",
"              + + .             ",
"           .+      ..           ",
"         ..          ..         ",
"       +       +.       +       ",
"     ..      .    +       .+    ",
"           .        .      +    ",
"       +.       .      +.       ",
"    .  .+      ..       .   .   ",
"                         +  .   ",
"   +                 .          ",
"      +       ++++        +  +  ",
"  +          .@.+..  .          ",
"     +    +.        ++     +  . ",
" .                              ",
" +  +                   +   +  .",
".+ ..  ..            +  ++  . .@",
" .  .                   .      .",
"                           .  . ",
"  .  .   .                .     ",
"  .                   .   .  +  ",
"      .   .+         .   +      ",
"   .                 +   .  .   ",
"       +        +       .   .   ",
"    +  ..       +      +.       ",
"          .          ..    +    ",
"     @      .             .     ",
"      +.       +..       .+     ",
"         .            ..        ",
"           ++       +.          ",
"             .    +             ",
"               +@               "};
